<?xml version="1.0" standalone="no"?>
<!DOCTYPE svg PUBLIC "-//W3C//DTD SVG 20010904//EN"
 "http://www.w3.org/TR/2001/REC-SVG-20010904/DTD/svg10.dtd">
<svg version="1.0" xmlns="http://www.w3.org/2000/svg"
 width="500.000000pt" height="500.000000pt" viewBox="0 0 500.000000 500.000000"
 preserveAspectRatio="xMidYMid meet">
<metadata>
Created by potrace 1.16, written by Peter Selinger 2001-2019
</metadata>
<g transform="translate(0.000000,500.000000) scale(0.100000,-0.100000)"
fill="#000000" stroke="none">
<path d="M1200 3105 c-146 -34 -255 -134 -315 -290 -26 -71 -27 -213 0 -277
20 -49 31 -54 49 -25 7 11 6 30 -4 64 -8 26 -15 80 -15 118 0 131 81 242 225
310 48 23 136 44 186 45 64 0 152 -21 170 -41 17 -19 12 -19 -173 -19 -137 0
-194 -3 -207 -13 -21 -15 -24 -39 -30 -231 l-5 -151 -38 -36 c-46 -42 -59 -65
-84 -137 -43 -125 -10 -315 74 -425 73 -95 249 -141 409 -105 60 13 160 74
233 142 47 44 49 46 30 61 -28 20 -31 19 -87 -21 -27 -20 -52 -33 -55 -30 -8
7 -4 198 4 206 2 3 10 -2 16 -10 49 -64 186 -137 290 -155 128 -23 208 18 237
121 33 117 -9 261 -58 201 -7 -8 -7 -18 -2 -27 6 -8 10 -46 10 -83 0 -119 -51
-156 -198 -143 -104 10 -171 45 -264 137 l-38 37 0 100 c0 54 3 133 6 175 7
74 9 78 51 122 34 33 43 50 38 65 -9 27 -16 25 -53 -11 -18 -18 -34 -30 -37
-28 -6 7 -9 208 -3 215 4 3 37 -25 75 -63 48 -48 81 -93 112 -153 56 -108 90
-159 136 -198 38 -34 54 -39 72 -21 12 12 3 23 -89 121 -10 10 -18 22 -18 27
0 5 -4 11 -9 13 -5 2 -32 52 -61 111 -42 88 -63 120 -115 171 -126 124 -293
170 -465 131z m43 -145 c5 -18 14 -20 82 -20 70 0 77 2 82 21 5 19 11 21 60
17 29 -3 59 -10 66 -17 18 -18 17 -905 -1 -923 -9 -9 -62 -14 -193 -16 -152
-3 -184 -1 -205 13 l-24 15 0 450 0 449 22 15 c12 9 41 16 64 16 33 0 43 -4
47 -20z m-153 -520 c0 -63 -2 -70 -20 -70 -11 0 -20 -4 -20 -9 0 -5 -3 -16 -6
-25 -4 -11 2 -19 20 -26 26 -9 26 -11 27 -117 2 -136 4 -152 18 -166 8 -8 76
-14 204 -17 l192 -5 -50 -25 c-66 -33 -176 -39 -259 -15 -78 23 -122 69 -160
165 -41 104 -49 242 -16 306 17 35 53 74 67 74 2 0 3 -31 3 -70z"/>
<path d="M1808 2905 c-2 -3 -3 -18 0 -35 4 -30 5 -30 69 -30 72 0 128 -23 162
-66 31 -40 29 -138 -4 -209 -23 -48 -44 -72 -146 -160 -33 -29 -76 -85 -111
-146 -18 -29 -18 -30 5 -39 26 -10 42 5 147 140 19 25 62 75 96 111 57 63 104
152 104 199 0 33 -41 127 -72 164 -45 55 -94 76 -176 76 -38 0 -71 -2 -74 -5z"/>
<path d="M2840 2500 l0 -140 35 0 35 0 0 65 c0 52 3 66 18 74 30 16 42 -6 42
-76 l0 -63 30 0 30 0 0 80 c0 67 -3 83 -20 100 -22 22 -51 26 -81 10 -18 -10
-19 -7 -19 40 l0 50 -35 0 -35 0 0 -140z"/>
<path d="M3145 2628 c-31 -17 -45 -39 -45 -73 0 -40 22 -60 91 -83 35 -12 55
-25 57 -37 7 -35 -51 -46 -112 -21 -32 13 -34 13 -44 -9 -9 -19 -7 -24 14 -34
14 -6 53 -11 88 -11 71 0 109 21 120 66 11 40 -16 70 -85 95 -66 24 -83 44
-54 65 24 18 63 18 96 0 25 -13 28 -12 38 10 10 22 8 26 -15 34 -34 13 -124
12 -149 -2z"/>
<path d="M2160 2606 c0 -21 5 -25 38 -28 l37 -3 3 -107 3 -108 29 0 30 0 0
110 0 110 35 0 c31 0 35 3 35 25 l0 25 -105 0 c-105 0 -105 0 -105 -24z"/>
<path d="M3418 2613 c-11 -3 -18 -14 -18 -29 0 -17 -5 -24 -20 -24 -11 0 -20
-4 -20 -9 0 -5 -3 -16 -6 -25 -4 -12 0 -16 15 -16 19 0 21 -6 21 -58 0 -70 18
-92 73 -92 30 0 37 4 37 19 0 10 -9 21 -20 24 -26 7 -34 29 -26 72 6 29 11 35
31 35 20 0 25 5 25 25 0 20 -5 25 -26 25 -23 0 -26 3 -22 30 5 31 -2 34 -44
23z"/>
<path d="M2400 2482 c0 -90 15 -122 58 -122 15 0 38 7 50 16 20 14 22 14 22 0
0 -10 9 -16 25 -16 l25 0 0 100 0 100 -30 0 -30 0 0 -65 c0 -51 -4 -66 -17
-73 -34 -18 -43 -3 -43 69 l0 69 -30 0 -30 0 0 -78z"/>
<path d="M2700 2553 c-28 -10 -59 -46 -65 -75 -18 -79 74 -146 146 -108 16 9
17 15 9 31 -8 14 -17 18 -30 14 -31 -10 -60 12 -60 45 0 31 30 56 55 46 7 -2
21 4 30 14 16 17 15 19 -4 29 -21 12 -56 13 -81 4z"/>
<path d="M3591 2547 c-57 -33 -68 -112 -22 -158 24 -24 38 -29 76 -29 59 0 83
13 101 55 20 49 18 71 -14 106 -33 36 -101 49 -141 26z"/>
<path d="M3812 2493 c-1 -38 -5 -85 -8 -105 -6 -38 -6 -38 30 -38 l36 0 0 53
c0 65 20 97 61 97 26 0 29 3 29 30 0 36 -25 40 -58 10 l-22 -21 0 21 c0 16 -6
20 -33 20 l-32 0 -3 -67z"/>
<path d="M4021 2534 c-23 -21 -34 -41 -38 -71 -5 -37 -2 -45 25 -73 26 -25 38
-30 79 -30 56 0 78 11 70 34 -5 13 -15 15 -45 10 -29 -4 -43 -2 -55 11 -29 28
-19 35 48 35 l65 0 0 29 c0 42 -28 71 -76 78 -35 4 -46 1 -73 -23z"/>
</g>
</svg>
